# xmcd
#
# Track frame offsets:
#	150
#	15789
#	36650
#	56055
#	61606
#	76606
#	103476
#	124709
#	149362
#	174283
#	188800
#	205707
#	223339
#	246784
#
# Disc length: 3521 seconds
#
# Revision: 1
# Processed by: cddbd v1.4PL0 Copyright (c) Steve Scherf et al.
# Submitted via: audiograbber 1.80
#
DISCID=c00dbf0e
DTITLE=Armand and Bluesology - Too Much Is Not Enough
DYEAR=1900
DGENRE=
TTITLE0=Too Much
TTITLE1=One Night
TTITLE2=A Dog and His Bone
TTITLE3=Dream Intro
TTITLE4=Where Did The Dream Go
TTITLE5=Personal Manager
TTITLE6=Rely On Me
TTITLE7=There She Is
TTITLE8=When The Axe Comes Down
TTITLE9=Your Whole Life Thru
TTITLE10=Cat In A Hat With A Strat
TTITLE11=Missin' The Whole Point
TTITLE12=New Kakalaky Blues
TTITLE13=Come Back Baby
EXTD=
EXTT0=
EXTT1=
EXTT2=
EXTT3=
EXTT4=
EXTT5=
EXTT6=
EXTT7=
EXTT8=
EXTT9=
EXTT10=
EXTT11=
EXTT12=
EXTT13=
PLAYORDER=
